<?xml version="1.0" encoding="iso-8859-1"?>
<!-- Generator: Adobe Illustrator 19.0.0, SVG Export Plug-In . SVG Version: 6.00 Build 0)  -->
<svg version="1.1" xmlns="http://www.w3.org/2000/svg" xmlns:xlink="http://www.w3.org/1999/xlink" x="0px" y="0px"
	 viewBox="0 0 520 520" style="enable-background:new 0 0 520 520;" xml:space="preserve">
<g id="_x31_223_x2C__Bats_x2C__grave_x2C__rip_x2C__yard">
	<g>
		<polygon style="fill:#60534A;" points="400,250 400,290 300,290 300,490 220,490 220,290 120,290 120,250 120,210 220,210 
			220,100 300,100 300,210 400,210 		"/>
		<path style="fill:#74829C;" d="M100,390c11.05,0,20,8.95,20,20s-8.95,20-20,20s-20-8.95-20-20S88.95,390,100,390z"/>
		<path style="fill:#74829C;" d="M440,340c11.05,0,20,8.95,20,20s-8.95,20-20,20c-11.05,0-20-8.95-20-20S428.95,340,440,340z"/>
		<path style="fill:#3C3B3D;" d="M490,35.99c0,0-33.2-3.02-28.79,28.44c0,0-25.54-3.37-21.59,23.79c0,0-23.5-2.61-38.271,24.83
			c-14.77-27.44-39.699-24.83-39.699-24.83c3.949-27.16-21.591-23.79-21.591-23.79c4.41-31.46-28.79-28.44-28.79-28.44
			c44.58-20.2,75.221,17.18,75.221,17.18V30.65l9.75,10.68h8.79l9.75-10.68v22.52C414.78,53.17,445.42,15.79,490,35.99z"/>
		<path style="fill:#3C3B3D;" d="M106.61,81.19l-7.55-21.21l12.77,6.79l8.28-2.95l5.6-13.34l7.56,21.22c0,0,16.31-45.5,65.08-41.44
			c0,0-32.28,8.3-17.56,36.45c0,0-25.19,5.41-12.35,29.67c0,0-23.02,5.43-27.72,36.23c-23.12-20.88-45.73-10.05-45.73-10.05
			c-5.4-26.91-28.32-15.17-28.32-15.17c-6.32-30.65-35.78-17.52-36.65-17.13C64.9,56.6,105.85,80.74,106.61,81.19z"/>
		<path d="M490,500H300c-5.523,0-10-4.478-10-10s4.477-10,10-10h190c5.522,0,10,4.478,10,10S495.522,500,490,500z"/>
		<path d="M220,500H30c-5.523,0-10-4.478-10-10s4.477-10,10-10h190c5.523,0,10,4.478,10,10S225.523,500,220,500z"/>
		<path d="M300,500h-80c-5.523,0-10-4.478-10-10V300h-90c-5.523,0-10-4.478-10-10v-80c0-5.523,4.477-10,10-10h90V100
			c0-5.523,4.477-10,10-10h80c5.522,0,10,4.477,10,10v100h90c5.522,0,10,4.477,10,10v80c0,5.522-4.478,10-10,10h-90v190
			C310,495.522,305.522,500,300,500z M230,480h60V290c0-5.522,4.477-10,10-10h90v-60h-90c-5.523,0-10-4.477-10-10V110h-60v100
			c0,5.523-4.477,10-10,10h-90v60h90c5.523,0,10,4.478,10,10V480z"/>
		<path d="M401.35,123.05L401.35,123.05c-3.68,0-7.061-2.021-8.806-5.26c-9.807-18.22-24.772-19.636-29.126-19.636
			c-0.369,0-0.637,0.011-0.783,0.02c-3.079,0.382-6.051-0.708-8.233-2.923c-2.194-2.23-3.098-5.372-2.647-8.468
			c0.684-4.703,0.229-8.255-1.282-10.001c-1.993-2.304-6.487-2.483-7.816-2.483c-0.842,0-1.378,0.059-1.384,0.059
			c-3.119,0.478-6.142-0.574-8.388-2.795s-3.167-5.392-2.729-8.52c0.791-5.64,0.06-9.801-2.172-12.368
			c-3.843-4.419-12.014-4.762-14.427-4.762c-0.893,0-1.435,0.042-1.44,0.042c-4.861,0.445-9.3-2.691-10.545-7.41
			c-1.245-4.718,1.125-9.649,5.57-11.663c10.075-4.565,20.345-6.88,30.523-6.88c15.988,0,29.199,5.633,38.824,11.741V30.65
			c0-4.127,2.536-7.831,6.385-9.323c3.849-1.492,8.218-0.467,11.001,2.581l6.759,7.405l6.76-7.405
			c2.783-3.049,7.154-4.073,11.001-2.581c3.849,1.492,6.385,5.196,6.385,9.323v1.091c9.625-6.107,22.835-11.739,38.823-11.739
			c10.033,0,20.153,2.249,30.09,6.685c3.705,1.464,6.326,5.078,6.326,9.304c0,5.434-4.334,9.856-9.734,9.997
			c-0.396,0.008-0.79-0.001-1.19-0.038c0.002,0,0.002,0,0.002,0c-0.009,0-0.539-0.038-1.386-0.038
			c-2.413,0-10.583,0.343-14.427,4.762c-2.155,2.479-2.91,6.443-2.248,11.791c0.127,0.635,0.192,1.292,0.192,1.965
			c0,0.469-0.032,0.93-0.095,1.382c-0.271,2.154-1.218,4.183-2.798,5.744c-2.244,2.218-5.316,3.257-8.426,2.789
			c0.001,0.003-0.481-0.049-1.298-0.049c-1.329,0-5.822,0.179-7.816,2.484c-1.448,1.674-1.926,5.008-1.359,9.427
			c0.133,0.65,0.202,1.323,0.202,2.012c0,0.244-0.008,0.486-0.025,0.725c-0.131,2.371-1.055,4.636-2.761,6.35
			c-2.206,2.215-5.173,3.29-8.268,2.873c-0.132-0.008-0.348-0.015-0.635-0.015c-4.041,0-17.987,1.416-27.795,19.636
			C408.411,121.029,405.028,123.05,401.35,123.05z M371.882,78.978c8.07,1.505,19.49,5.635,29.424,16.644
			c9.569-10.795,20.349-14.976,28.074-16.553c0.597-6.075,2.699-11.221,6.292-15.373c4.476-5.174,10.258-7.563,15.302-8.621
			c0.508-5.45,2.134-10.272,4.868-14.427c-20.17,3.364-33.21,18.72-33.355,18.894c-2.697,3.232-7.142,4.447-11.1,3.012
			c-3.958-1.434-6.607-5.175-6.607-9.384v-1.84h-8.29v1.84c0,4.225-2.655,7.994-6.634,9.417c-3.978,1.419-8.422,0.191-11.1-3.077
			c-0.121-0.145-13.16-15.498-33.329-18.862c2.734,4.154,4.36,8.978,4.868,14.427c5.045,1.057,10.826,3.446,15.303,8.62
			C369.173,67.827,371.272,72.943,371.882,78.978z"/>
		<path d="M140.717,142.61c-2.39,0-4.787-0.851-6.699-2.579c-17.938-16.199-34.542-8.532-34.708-8.453
			c-2.783,1.333-6.025,1.308-8.786-0.071c-2.761-1.378-4.731-3.954-5.338-6.979c-0.561-2.795-1.929-7.696-4.786-9.111
			c-2.762-1.369-7.427,0.027-9.256,0.917c-2.782,1.495-5.976,1.52-8.837,0.184c-2.861-1.337-4.792-4.015-5.43-7.107
			c-1.186-5.75-3.373-9.478-6.501-11.08c-5.256-2.689-13.597-0.12-16.206,1.029c-1.298,0.594-2.72,0.911-4.169,0.911
			c-5.523,0-10-4.477-10-10c0-4.136,2.51-7.685,6.091-9.207c3.451-1.521,19.323-7.741,33.398-0.535
			c4.446,2.276,9.869,6.568,13.651,14.617c4.712-0.646,10.38-0.43,15.912,2.24c4.037,1.949,8.945,5.725,12.444,13.033
			c10.851-1.774,28.394-1.063,45.926,14.771c4.099,3.702,4.421,10.025,0.719,14.123C146.167,141.498,143.448,142.61,140.717,142.61z
			"/>
		<path d="M30.021,100.26c-2.619,0-5.234-1.023-7.197-3.056c-3.835-3.974-3.722-10.305,0.252-14.14
			c39.966-38.566,86.66-11.644,88.627-10.479c0.721,0.427,1.385,0.942,1.978,1.534c3.905,3.905,3.91,10.242,0.005,14.147
			c-3.362,3.363-8.523,3.835-12.386,1.404c-3.254-1.857-36.085-19.478-64.336,7.785C35.023,99.328,32.521,100.26,30.021,100.26z"/>
		<path d="M140.732,142.611c-0.501,0-1.009-0.038-1.52-0.116c-5.46-0.834-9.21-5.935-8.377-11.394
			c3.509-22.997,15.8-34.462,24.908-39.92c-1.944-7.917-0.528-13.977,1.373-18.055c2.597-5.571,6.854-9.326,10.914-11.807
			c-1.495-5.959-1.25-11.03-0.29-15.113c-18.058,9.996-24.96,28.6-25.056,28.868c-1.425,3.974-5.192,6.626-9.414,6.626
			c-0.003,0-0.006,0-0.01,0c-4.226-0.004-7.992-2.664-9.41-6.644l-0.618-1.733l-7.817,2.785l0.615,1.728
			c1.852,5.203-0.864,10.922-6.067,12.774c-5.202,1.854-10.922-0.864-12.774-6.067l-7.55-21.21
			c-1.384-3.888-0.237-8.227,2.887-10.924c3.124-2.697,7.583-3.197,11.229-1.259l8.852,4.707l3.882-9.248
			c1.598-3.806,5.367-6.223,9.496-6.126c4.126,0.114,7.759,2.752,9.144,6.64l0.367,1.029c1.427-1.829,2.999-3.687,4.725-5.53
			c10.792-11.527,29.784-24.761,58.958-22.329c4.863,0.405,8.724,4.26,9.135,9.123c0.411,4.863-2.748,9.312-7.474,10.527
			c-2.617,0.707-10.782,3.993-13.166,9.438c-1.409,3.219-0.744,7.49,1.977,12.693c1.464,2.799,1.616,6.105,0.246,8.951
			c-1.37,2.846-3.907,4.858-7.008,5.46c-1.888,0.447-6.391,2.322-7.666,5.132c-1.318,2.905,0.722,7.564,2.055,10.083
			c1.473,2.783,1.694,6.066,0.35,8.915c-1.335,2.828-3.773,4.836-6.828,5.483c-1.376,0.394-16.725,5.285-20.194,28.019
			C149.851,139.067,145.589,142.611,140.732,142.611z"/>
		<path d="M440,390c-16.542,0-30-13.458-30-30s13.458-30,30-30s30,13.458,30,30S456.542,390,440,390z M440,350
			c-5.514,0-10,4.486-10,10s4.486,10,10,10s10-4.486,10-10S445.514,350,440,350z"/>
		<path d="M100,440c-16.542,0-30-13.458-30-30s13.458-30,30-30s30,13.458,30,30S116.542,440,100,440z M100,400
			c-5.514,0-10,4.486-10,10s4.486,10,10,10s10-4.486,10-10S105.514,400,100,400z"/>
		<path d="M200,260h-80c-5.523,0-10-4.477-10-10s4.477-10,10-10h80c5.523,0,10,4.477,10,10S205.523,260,200,260z"/>
		<path d="M400,260h-80c-5.523,0-10-4.477-10-10s4.477-10,10-10h80c5.522,0,10,4.477,10,10S405.522,260,400,260z"/>
	</g>
</g>
<g id="Layer_1">
</g>
</svg>
